<svg xmlns="http://www.w3.org/2000/svg" viewBox="0 0 596.86 220.2"><defs><style>.cls-1,.cls-5{stroke:#fff;stroke-width:7px;}.cls-1,.cls-2,.cls-4,.cls-5{stroke-miterlimit:10;}.cls-2,.cls-5{fill:#fff;}.cls-2,.cls-4{stroke:#231f20;}.cls-2{stroke-width:40px;}.cls-3{fill:#00a79d;}.cls-4{fill:none;stroke-width:10px;}.cls-6{fill:#231f20;}</style></defs><title>bashon_header</title><g id="Layer_1" data-name="Layer 1"><path class="cls-1" d="M173.69,307.64c31.49,5.25,57.08,20.34,57.08,52.15,0,22.31-12.47,40-31.82,50.51-17.06,9.52-33.79,12.8-56.75,12.8H61.52v-9.19C89.4,411.29,91,408.34,91,382.42V250.89c0-27.22-3-29.52-29.52-31.81v-9.19h85.93c24.6,0,40,4.27,50.51,11.48,11.48,7.88,19.36,20,19.36,36.74C217.32,288.94,192.06,303.05,173.69,307.64ZM136,303.7c36.08,0,50.84-14.43,50.84-41.33,0-23-14.1-40.67-45.59-40.67-9.18,0-15.09,1-18.37,3.28-2.62,2-3.61,5.58-3.61,16.07V303.7Zm-16.73,78.07c0,23.61,5.58,29.52,28.87,29.52,25.58,0,50.51-13.78,50.51-48.22,0-33.45-23.62-47.89-63.63-47.89H119.24Z" transform="translate(-58.02 -206.39)"/><path class="cls-2" d="M140.51,86.88" transform="translate(-58.02 -206.39)"/><path class="cls-3" d="M173.69,307.64c31.49,5.25,57.08,20.33,57.08,52.15,0,22.3-12.47,40-31.82,50.51-17.06,9.52-33.79,12.8-56.75,12.8H61.52v-9.19C89.4,411.29,91,408.33,91,382.42V250.89c0-27.22-3-29.52-29.52-31.81v-9.19h85.93c24.6,0,40,4.27,50.51,11.48,11.48,7.88,19.36,20,19.36,36.74C217.32,288.94,192.06,303.05,173.69,307.64ZM136,303.7c36.08,0,50.84-14.43,50.84-41.33,0-23-14.1-40.67-45.59-40.67-9.18,0-15.09,1-18.37,3.28-2.62,2-3.61,5.58-3.61,16.07V303.7Zm-16.73,78.07c0,23.61,5.58,29.52,28.87,29.52,25.58,0,50.51-13.78,50.51-48.22,0-33.46-23.62-47.89-63.63-47.89H119.24Z" transform="translate(-58.02 -206.39)"/><path class="cls-4" d="M292.54,410.53" transform="translate(-58.02 -206.39)"/></g><g id="Layer_2" data-name="Layer 2"><path class="cls-5" d="M297.68,417.52c-3,0-7.47-1.62-9.49-3.84-2.63-2.62-3.84-5.45-4.85-9.09-8.08,5.46-18,12.93-24.24,12.93-14.34,0-24.64-11.92-24.64-24.85,0-9.89,5.45-16.36,16.56-20.2,12.32-4.24,27.47-9.49,31.92-13.13v-4c0-14.35-7.28-22.63-17.78-22.63a11.69,11.69,0,0,0-9.49,4.65c-2.23,2.83-3.64,7.27-5.46,13.13-1,3.23-2.83,4.64-5.86,4.64-3.83,0-8.88-4-8.88-8.88,0-2.83,2.62-5.26,6.66-8.08,5.86-4.25,17.58-11.72,29.09-14.14a27.9,27.9,0,0,1,17,5.45c7.07,6.06,10.3,12.93,10.3,23.43v39c0,9.29,3.43,12.12,7.07,12.12a16,16,0,0,0,7.27-2.23l2,5.66Zm-14.74-51.1c-4.45,2.22-14.14,6.46-18.79,8.48-7.68,3.43-12.32,7.27-12.32,14.74,0,10.71,8.08,15.56,14.54,15.56,5.25,0,12.53-3.23,16.57-7.27Z" transform="translate(-58.02 -206.39)"/><path class="cls-5" d="M360.1,350.46c-3.64-11.72-8.89-19.8-21.21-19.8-7.07,0-12.52,5-12.52,13.13,0,8.69,5.86,12.73,17.17,18,17.37,8.28,26,14.34,26,27.67,0,18.59-17,28.08-32.92,28.08-10.5,0-19.8-3.23-24-5.66-1-5.85-2.83-17-3.63-23.63l5.85-1c3.64,12.93,10.71,23.43,24.85,23.43,7.68,0,14.14-5.25,14.14-13.73,0-9.09-5.46-13.74-16.16-19C323.54,371.06,312,364.6,312,350.05c0-14.74,12.52-26.05,31.51-26.05,8.48,0,15.35,2,19.39,2.62.6,4.85,2,17.58,3,22.42Z" transform="translate(-58.02 -206.39)"/><path class="cls-5" d="M423.93,415.1v-5.66c11.72-1.21,13.33-2.22,13.33-15.55V360.76c0-16.77-6.46-25.25-20-25.05-7.67,0-15.75,3.84-21.41,10.51v47.67c0,13.13,1.62,14.34,13.74,15.55v5.66h-44v-5.66c11.72-1,14.34-2,14.34-15.55V296.52c0-10.7-.6-13.33-14.14-14.54v-5.25a124.94,124.94,0,0,0,30.1-6.87v68.88c7.27-7.27,18.38-14.74,29.29-14.74,16.57,0,28.08,10.3,28.08,34.54v35.55c0,13.33,1.61,14.34,13.33,15.35v5.66Z" transform="translate(-58.02 -206.39)"/><path class="cls-5" d="M508.77,324c25.25,0,44,19.19,44,45.24,0,32.73-24.23,48.28-44,48.28-27.88,0-44.84-22.42-44.84-45C463.93,339.55,489.58,324,508.77,324Zm-2.42,6.86c-12.33,0-23.44,11.92-23.44,35.35,0,25.66,11.32,44.24,27.88,44.24,12.52,0,23-9.09,23-36.76C533.82,350.05,524.12,330.86,506.35,330.86Z" transform="translate(-58.02 -206.39)"/><path class="cls-5" d="M609.57,415.1v-5.66c11.71-1.21,12.93-2.63,12.93-16.36V359.75c0-14.14-5.06-23.63-18.39-23.63-8.28,0-16.16,4.84-22.42,10.5v47.27c0,13.93,1.21,14.34,13.13,15.55v5.66H551.19v-5.66c13.33-1.41,14.54-2.22,14.54-15.55V352.28c0-13.13-1.41-13.74-12.32-15.56v-5.25a114.64,114.64,0,0,0,28.28-8.08v16c4-2.83,8.48-5.86,13.74-9.29,5.65-3.64,10.9-6.06,16.76-6.06,16.16,0,26.26,11.91,26.26,31.51v38.38c0,13.73,1.21,14.34,12.93,15.55v5.66Z" transform="translate(-58.02 -206.39)"/><path class="cls-6" d="M297.68,417.52c-3,0-7.47-1.62-9.49-3.84-2.63-2.62-3.84-5.45-4.85-9.09-8.08,5.46-18,12.93-24.24,12.93-14.34,0-24.64-11.92-24.64-24.85,0-9.89,5.45-16.36,16.56-20.2,12.32-4.24,27.47-9.49,31.92-13.13v-4c0-14.34-7.28-22.62-17.78-22.62a11.69,11.69,0,0,0-9.49,4.65c-2.23,2.83-3.64,7.27-5.46,13.13-1,3.23-2.83,4.64-5.86,4.64-3.83,0-8.88-4-8.88-8.89,0-2.82,2.62-5.25,6.66-8.08,5.86-4.24,17.58-11.71,29.09-14.13a27.9,27.9,0,0,1,17,5.45c7.07,6.06,10.3,12.93,10.3,23.43v39c0,9.29,3.43,12.12,7.07,12.12a16,16,0,0,0,7.27-2.23l2,5.66Zm-14.74-51.11c-4.45,2.23-14.14,6.47-18.79,8.49-7.68,3.43-12.32,7.27-12.32,14.74,0,10.71,8.08,15.56,14.54,15.56,5.25,0,12.53-3.23,16.57-7.27Z" transform="translate(-58.02 -206.39)"/><path class="cls-6" d="M360.1,350.46c-3.64-11.72-8.89-19.8-21.21-19.8-7.07,0-12.52,5-12.52,13.13,0,8.69,5.85,12.73,17.17,18,17.37,8.28,26,14.34,26,27.67,0,18.59-17,28.08-32.92,28.08-10.5,0-19.8-3.23-24-5.66-1-5.85-2.83-17-3.63-23.63l5.85-1c3.64,12.93,10.71,23.43,24.85,23.43,7.67,0,14.14-5.25,14.14-13.73,0-9.09-5.46-13.74-16.16-19C323.54,371.06,312,364.6,312,350.05c0-14.74,12.53-26.05,31.52-26.05,8.48,0,15.35,2,19.39,2.62.6,4.85,2,17.58,3,22.42Z" transform="translate(-58.02 -206.39)"/><path class="cls-6" d="M423.93,415.1v-5.66c11.72-1.21,13.33-2.22,13.33-15.55V360.76c0-16.77-6.46-25.25-20-25.05-7.67,0-15.75,3.84-21.41,10.5v47.68c0,13.13,1.62,14.34,13.74,15.55v5.66h-44v-5.66c11.72-1,14.34-2,14.34-15.55V296.52c0-10.7-.6-13.33-14.14-14.54v-5.25a124.94,124.94,0,0,0,30.1-6.87v68.88c7.27-7.27,18.38-14.74,29.29-14.74,16.57,0,28.08,10.3,28.08,34.54v35.55c0,13.33,1.61,14.34,13.33,15.35v5.66Z" transform="translate(-58.02 -206.39)"/><path class="cls-6" d="M508.77,324c25.25,0,44,19.18,44,45.24,0,32.73-24.23,48.28-44,48.28-27.88,0-44.84-22.42-44.84-45C463.93,339.55,489.58,324,508.77,324Zm-2.42,6.86c-12.33,0-23.44,11.92-23.44,35.35,0,25.66,11.32,44.24,27.88,44.24,12.52,0,23-9.09,23-36.76C533.82,350.05,524.12,330.86,506.35,330.86Z" transform="translate(-58.02 -206.39)"/><path class="cls-6" d="M609.57,415.1v-5.66c11.71-1.21,12.93-2.63,12.93-16.36V359.75c0-14.14-5.06-23.63-18.39-23.63-8.28,0-16.16,4.84-22.42,10.5v47.27c0,13.93,1.21,14.34,13.13,15.55v5.66H551.19v-5.66c13.33-1.41,14.54-2.22,14.54-15.55V352.27c0-13.13-1.41-13.73-12.32-15.55v-5.25a114.64,114.64,0,0,0,28.28-8.08v16c4-2.83,8.48-5.86,13.74-9.29,5.65-3.64,10.9-6.06,16.76-6.06,16.16,0,26.26,11.91,26.26,31.51v38.38c0,13.73,1.21,14.34,12.93,15.55v5.66Z" transform="translate(-58.02 -206.39)"/></g></svg>