<svg xmlns="http://www.w3.org/2000/svg" xmlns:xlink="http://www.w3.org/1999/xlink" viewBox="0 0 525.59 402.45"><defs><style>.cls-1,.cls-10,.cls-11,.cls-3,.cls-7,.cls-9{fill:none;}.cls-1,.cls-10,.cls-11{stroke:#fff;}.cls-1,.cls-10,.cls-11,.cls-2,.cls-3,.cls-4,.cls-7,.cls-8,.cls-9{stroke-linecap:round;}.cls-1,.cls-2,.cls-3,.cls-4,.cls-5,.cls-6,.cls-7,.cls-8,.cls-9{stroke-miterlimit:10;}.cls-1{stroke-width:60px;}.cls-2,.cls-4,.cls-6{fill:#2b3990;}.cls-2,.cls-3,.cls-4,.cls-5,.cls-6,.cls-7,.cls-8,.cls-9{stroke-width:50px;}.cls-2{stroke:url(#linear-gradient);}.cls-3{stroke:url(#linear-gradient-2);}.cls-4{stroke:url(#linear-gradient-3);}.cls-5{fill:#fff;}.cls-5,.cls-6{stroke:#231f20;}.cls-7{stroke:url(#linear-gradient-4);}.cls-8{fill:url(#linear-gradient-5);stroke:url(#linear-gradient-6);}.cls-9{stroke:url(#linear-gradient-7);}.cls-10{stroke-linejoin:bevel;}.cls-10,.cls-11{stroke-width:35px;}.cls-11{stroke-linejoin:round;}</style><linearGradient id="linear-gradient" x1="114.8" y1="323.57" x2="176.87" y2="323.57" gradientUnits="userSpaceOnUse"><stop offset="0" stop-color="#92278f"/><stop offset="1" stop-color="#da1c5c"/></linearGradient><linearGradient id="linear-gradient-2" x1="126.87" y1="152.34" x2="207.07" y2="152.34" gradientUnits="userSpaceOnUse"><stop offset="0" stop-color="#00a79d"/><stop offset="1" stop-color="#1b75bc"/></linearGradient><linearGradient id="linear-gradient-3" x1="353.34" y1="77.64" x2="415.11" y2="77.64" xlink:href="#linear-gradient"/><linearGradient id="linear-gradient-4" x1="322.84" y1="248.87" x2="403.34" y2="248.87" xlink:href="#linear-gradient-2"/><linearGradient id="linear-gradient-5" x1="44.69" y1="125.29" x2="495.59" y2="125.29" xlink:href="#linear-gradient"/><linearGradient id="linear-gradient-6" x1="19.69" y1="125.29" x2="520.59" y2="125.29" gradientUnits="userSpaceOnUse"><stop offset="0.4" stop-color="#92278f"/><stop offset="1" stop-color="#da1c5c"/></linearGradient><linearGradient id="linear-gradient-7" x1="5" y1="274.69" x2="505.9" y2="274.69" xlink:href="#linear-gradient"/></defs><title>bashon_logo_white</title><g id="Layer_8" data-name="Layer 8"><path class="cls-1" d="M330.32,129.65,288.05,472.1" transform="translate(-148.25 -99.65)"/><path class="cls-1" d="M538.35,129.65,496.08,472.1" transform="translate(-148.25 -99.65)"/><path class="cls-1" d="M178.25,374.34h450.9" transform="translate(-148.25 -99.65)"/><path class="cls-1" d="M192.94,224.94h450.9" transform="translate(-148.25 -99.65)"/></g><g id="Layer_6" data-name="Layer 6"><line class="cls-2" x1="139.8" y1="372.45" x2="151.87" y2="274.69"/></g><g id="Layer_5" data-name="Layer 5"><line class="cls-3" x1="182.07" y1="30" x2="151.87" y2="274.69"/></g><g id="Layer_4" data-name="Layer 4"><line class="cls-4" x1="378.34" y1="125.29" x2="390.11" y2="30"/></g><g id="Layer_3" data-name="Layer 3"><g id="Layer_1" data-name="Layer 1"><path class="cls-5" d="M555.41,350" transform="translate(-148.25 -99.65)"/><path class="cls-5" d="M387,203" transform="translate(-148.25 -99.65)"/></g><path class="cls-6" d="M682,123.18" transform="translate(-148.25 -99.65)"/><line class="cls-7" x1="347.84" y1="372.45" x2="378.34" y2="125.29"/></g><g id="Layer_2" data-name="Layer 2"><path class="cls-5" d="M401.39,169.22" transform="translate(-148.25 -99.65)"/><line class="cls-8" x1="44.69" y1="125.29" x2="495.59" y2="125.29"/><line class="cls-9" x1="30" y1="274.69" x2="480.9" y2="274.69"/></g><g id="Layer_7" data-name="Layer 7"><line class="cls-10" x1="139.8" y1="372.45" x2="156.59" y2="237.49"/><polyline class="cls-11" points="152.83 274.69 359.09 274.69 347.83 372.45"/></g></svg>