<svg xmlns="http://www.w3.org/2000/svg" viewBox="0 0 617.05 262.97"><defs><style>.cls-1{fill:#fff;stroke-width:40px;}.cls-1,.cls-3,.cls-4,.cls-5{stroke:#231f20;}.cls-1,.cls-3{stroke-miterlimit:10;}.cls-2{fill:#00a79d;}.cls-3,.cls-4,.cls-5{fill:none;}.cls-3{stroke-width:10px;}.cls-4,.cls-5{stroke-linecap:round;stroke-linejoin:round;}.cls-4{stroke-width:14px;}.cls-5{stroke-width:16px;}.cls-6{fill:#231f20;}</style></defs><title>bashon_header</title><g id="Layer_1" data-name="Layer 1"><path class="cls-1" d="M140.51,86.88" transform="translate(-43.81 -167.07)"/><path class="cls-2" d="M177.19,283.29c37.44,6.24,67.86,24.18,67.86,62,0,26.52-14.82,47.58-37.83,60.06-20.28,11.31-40.17,15.21-67.47,15.21H43.81V409.65c33.15-3.12,35.1-6.63,35.1-37.44V215.82c0-32.37-3.51-35.1-35.1-37.83V167.07H146c29.25,0,47.58,5.07,60.06,13.65,13.65,9.36,23,23.79,23,43.68C229.06,261.06,199,277.83,177.19,283.29Zm-44.85-4.68c42.9,0,60.45-17.16,60.45-49.14,0-27.3-16.77-48.36-54.21-48.36-10.92,0-17.94,1.17-21.84,3.9-3.12,2.34-4.29,6.63-4.29,19.11v74.49Zm-19.89,92.82c0,28.08,6.63,35.1,34.32,35.1,30.42,0,60.06-16.38,60.06-57.33,0-39.78-28.08-56.94-75.66-56.94H112.45Z" transform="translate(-43.81 -167.07)"/><path class="cls-3" d="M292.54,410.53" transform="translate(-43.81 -167.07)"/><line class="cls-4" x1="197.33" y1="224.12" x2="243.16" y2="224.12"/><path class="cls-5" d="M187.94,422c9.18-2.51,33.92-10.58,50-33.42,3.65-5.18,9.29-13.18,11.65-24.89,2.74-13.65.75-31,.75-31h0q27.81,39.8,55.6,79.6" transform="translate(-43.81 -167.07)"/><path class="cls-5" d="M366,327.48c-27.72,5.46-58.93,13.61-59,23.74-.09,14.75,65.78,21.69,65.75,36.61,0,6.17-11.31,14.85-63.59,25.26" transform="translate(-43.81 -167.07)"/></g><g id="Layer_2" data-name="Layer 2"><path class="cls-6" d="M433.41,417.09v-5.65c11.72-1.21,13.33-2.22,13.33-15.55V362.76c0-16.77-6.46-25.25-20-25.05-7.68,0-15.76,3.84-21.42,10.5v47.68c0,13.13,1.62,14.34,13.74,15.55v5.65H375v-5.65c11.72-1,14.35-2,14.35-15.55V298.52c0-10.7-.61-13.33-14.14-14.54v-5.25a125,125,0,0,0,30.09-6.87v68.88c7.28-7.27,18.39-14.74,29.29-14.74,16.57,0,28.08,10.3,28.08,34.54v35.55c0,13.33,1.62,14.34,13.33,15.35v5.65Z" transform="translate(-43.81 -167.07)"/><path class="cls-6" d="M518.25,326c25.25,0,44,19.18,44,45.24,0,32.72-24.24,48.28-44,48.28-27.87,0-44.84-22.42-44.84-45C473.41,341.55,499.06,326,518.25,326Zm-2.42,6.86c-12.32,0-23.43,11.92-23.43,35.35,0,25.66,11.31,44.24,27.87,44.24,12.52,0,23-9.09,23-36.76C543.3,352.05,533.6,332.86,515.83,332.86Z" transform="translate(-43.81 -167.07)"/><path class="cls-6" d="M619.05,417.09v-5.65c11.71-1.21,12.93-2.63,12.93-16.36V361.75c0-14.14-5.05-23.64-18.39-23.64-8.28,0-16.16,4.85-22.42,10.51v47.27c0,13.93,1.21,14.34,13.13,15.55v5.65H560.67v-5.65c13.33-1.41,14.55-2.22,14.55-15.55V354.27c0-13.13-1.42-13.73-12.33-15.55v-5.25a114.64,114.64,0,0,0,28.28-8.08v16c4-2.83,8.49-5.86,13.74-9.3,5.65-3.63,10.91-6.05,16.76-6.05,16.16,0,26.26,11.91,26.26,31.51v38.38c0,13.73,1.22,14.34,12.93,15.55v5.65Z" transform="translate(-43.81 -167.07)"/></g></svg>