<svg xmlns="http://www.w3.org/2000/svg" xmlns:xlink="http://www.w3.org/1999/xlink" viewBox="0 0 515.59 392.45"><defs><style>.cls-1,.cls-3,.cls-5{fill:#2b3990;}.cls-1,.cls-10,.cls-2,.cls-3,.cls-6,.cls-7,.cls-8,.cls-9{stroke-linecap:round;}.cls-1,.cls-2,.cls-3,.cls-4,.cls-5,.cls-6,.cls-7,.cls-8{stroke-miterlimit:10;stroke-width:50px;}.cls-1{stroke:url(#linear-gradient);}.cls-10,.cls-2,.cls-6,.cls-8,.cls-9{fill:none;}.cls-2{stroke:url(#linear-gradient-2);}.cls-3{stroke:url(#linear-gradient-3);}.cls-4{fill:#fff;}.cls-4,.cls-5{stroke:#231f20;}.cls-6{stroke:url(#linear-gradient-4);}.cls-7{fill:url(#linear-gradient-5);stroke:url(#linear-gradient-6);}.cls-8{stroke:url(#linear-gradient-7);}.cls-10,.cls-9{stroke:#fff;stroke-width:35px;}.cls-9{stroke-linejoin:bevel;}.cls-10{stroke-linejoin:round;}</style><linearGradient id="linear-gradient" x1="109.8" y1="318.57" x2="171.87" y2="318.57" gradientUnits="userSpaceOnUse"><stop offset="0" stop-color="#92278f"/><stop offset="1" stop-color="#da1c5c"/></linearGradient><linearGradient id="linear-gradient-2" x1="121.87" y1="147.34" x2="202.07" y2="147.34" gradientUnits="userSpaceOnUse"><stop offset="0" stop-color="#00a79d"/><stop offset="1" stop-color="#1b75bc"/></linearGradient><linearGradient id="linear-gradient-3" x1="348.34" y1="72.64" x2="410.11" y2="72.64" xlink:href="#linear-gradient"/><linearGradient id="linear-gradient-4" x1="317.84" y1="243.87" x2="398.34" y2="243.87" xlink:href="#linear-gradient-2"/><linearGradient id="linear-gradient-5" x1="39.69" y1="120.29" x2="490.59" y2="120.29" xlink:href="#linear-gradient"/><linearGradient id="linear-gradient-6" x1="14.69" y1="120.29" x2="515.59" y2="120.29" gradientUnits="userSpaceOnUse"><stop offset="0.4" stop-color="#92278f"/><stop offset="1" stop-color="#da1c5c"/></linearGradient><linearGradient id="linear-gradient-7" x1="0" y1="269.69" x2="500.9" y2="269.69" xlink:href="#linear-gradient"/></defs><title>bashon_logo</title><g id="Layer_6" data-name="Layer 6"><line class="cls-1" x1="134.8" y1="367.45" x2="146.87" y2="269.69"/></g><g id="Layer_5" data-name="Layer 5"><line class="cls-2" x1="177.07" y1="25" x2="146.87" y2="269.69"/></g><g id="Layer_4" data-name="Layer 4"><line class="cls-3" x1="373.34" y1="120.29" x2="385.11" y2="25"/></g><g id="Layer_3" data-name="Layer 3"><g id="Layer_1" data-name="Layer 1"><path class="cls-4" d="M555.41,350" transform="translate(-153.25 -104.65)"/><path class="cls-4" d="M387,203" transform="translate(-153.25 -104.65)"/></g><path class="cls-5" d="M682,123.18" transform="translate(-153.25 -104.65)"/><line class="cls-6" x1="342.84" y1="367.45" x2="373.34" y2="120.29"/></g><g id="Layer_2" data-name="Layer 2"><path class="cls-4" d="M401.39,169.22" transform="translate(-153.25 -104.65)"/><line class="cls-7" x1="39.69" y1="120.29" x2="490.59" y2="120.29"/><line class="cls-8" x1="25" y1="269.69" x2="475.9" y2="269.69"/></g><g id="Layer_7" data-name="Layer 7"><line class="cls-9" x1="134.8" y1="367.45" x2="151.59" y2="232.49"/><polyline class="cls-10" points="147.83 269.69 354.09 269.69 342.83 367.45"/></g></svg>